<mxfile host="app.diagrams.net" modified="2021-07-31T18:21:39.817Z" agent="5.0 (Windows NT 10.0; Win64; x64) AppleWebKit/537.36 (KHTML, like Gecko) Chrome/83.0.4103.97 Safari/537.36" etag="bBBCVlctzeU_vq4szE-i" version="13.0.1" type="github">
  <diagram name="Page-1" id="13e1069c-82ec-6db2-03f1-153e76fe0fe0">
    <mxGraphModel dx="1384" dy="708" grid="0" gridSize="10" guides="1" tooltips="1" connect="1" arrows="1" fold="1" page="1" pageScale="1" pageWidth="1100" pageHeight="850" background="none" math="0" shadow="0">
      <root>
        <mxCell id="0" />
        <mxCell id="1" parent="0" />
        <mxCell id="slBnFQedNk6HUx9HUzPg-7" value="&lt;font style=&quot;font-size: 15px;&quot;&gt;Browser&lt;/font&gt;" style="rounded=1;whiteSpace=wrap;html=1;fontSize=15;" parent="1" vertex="1">
          <mxGeometry x="263" y="38" width="120" height="60" as="geometry" />
        </mxCell>
        <mxCell id="slBnFQedNk6HUx9HUzPg-8" value="" style="endArrow=none;dashed=1;html=1;fontSize=15;entryX=0.5;entryY=1;entryDx=0;entryDy=0;textOpacity=50;opacity=50;" parent="1" target="slBnFQedNk6HUx9HUzPg-7" edge="1">
          <mxGeometry width="50" height="50" relative="1" as="geometry">
            <mxPoint x="322" y="787" as="sourcePoint" />
            <mxPoint x="815" y="395" as="targetPoint" />
          </mxGeometry>
        </mxCell>
        <mxCell id="slBnFQedNk6HUx9HUzPg-16" value="&lt;font style=&quot;font-size: 15px&quot;&gt;API&lt;/font&gt;" style="rounded=1;whiteSpace=wrap;html=1;fontSize=15;" parent="1" vertex="1">
          <mxGeometry x="683" y="38" width="120" height="60" as="geometry" />
        </mxCell>
        <mxCell id="slBnFQedNk6HUx9HUzPg-17" value="" style="endArrow=none;dashed=1;html=1;fontSize=15;entryX=0.5;entryY=1;entryDx=0;entryDy=0;textOpacity=50;opacity=50;" parent="1" target="slBnFQedNk6HUx9HUzPg-16" edge="1">
          <mxGeometry width="50" height="50" relative="1" as="geometry">
            <mxPoint x="741" y="779" as="sourcePoint" />
            <mxPoint x="1235" y="395" as="targetPoint" />
          </mxGeometry>
        </mxCell>
        <mxCell id="slBnFQedNk6HUx9HUzPg-18" value="&lt;font style=&quot;font-size: 15px&quot;&gt;DB&lt;/font&gt;" style="rounded=1;whiteSpace=wrap;html=1;fontSize=15;" parent="1" vertex="1">
          <mxGeometry x="915" y="38" width="120" height="60" as="geometry" />
        </mxCell>
        <mxCell id="slBnFQedNk6HUx9HUzPg-19" value="" style="endArrow=none;dashed=1;html=1;fontSize=15;entryX=0.5;entryY=1;entryDx=0;entryDy=0;shadow=0;fillColor=#f5f5f5;strokeColor=#666666;" parent="1" target="slBnFQedNk6HUx9HUzPg-18" edge="1">
          <mxGeometry width="50" height="50" relative="1" as="geometry">
            <mxPoint x="973" y="776" as="sourcePoint" />
            <mxPoint x="1467" y="395" as="targetPoint" />
          </mxGeometry>
        </mxCell>
        <mxCell id="slBnFQedNk6HUx9HUzPg-20" value="&lt;font style=&quot;font-size: 15px&quot;&gt;Zoom API&lt;/font&gt;" style="rounded=1;whiteSpace=wrap;html=1;fontSize=15;" parent="1" vertex="1">
          <mxGeometry x="473" y="38" width="120" height="60" as="geometry" />
        </mxCell>
        <mxCell id="slBnFQedNk6HUx9HUzPg-21" value="" style="endArrow=none;dashed=1;html=1;fontSize=15;entryX=0.5;entryY=1;entryDx=0;entryDy=0;textOpacity=50;fillColor=#f5f5f5;strokeColor=#666666;opacity=50;" parent="1" target="slBnFQedNk6HUx9HUzPg-20" edge="1">
          <mxGeometry width="50" height="50" relative="1" as="geometry">
            <mxPoint x="533" y="785" as="sourcePoint" />
            <mxPoint x="1025" y="395" as="targetPoint" />
          </mxGeometry>
        </mxCell>
        <mxCell id="slBnFQedNk6HUx9HUzPg-22" value="" style="endArrow=classic;html=1;fontSize=15;" parent="1" edge="1">
          <mxGeometry width="50" height="50" relative="1" as="geometry">
            <mxPoint x="324" y="141" as="sourcePoint" />
            <mxPoint x="747" y="141" as="targetPoint" />
          </mxGeometry>
        </mxCell>
        <mxCell id="slBnFQedNk6HUx9HUzPg-23" value="" style="endArrow=classic;html=1;fontSize=15;" parent="1" edge="1">
          <mxGeometry width="50" height="50" relative="1" as="geometry">
            <mxPoint x="744" y="189" as="sourcePoint" />
            <mxPoint x="324" y="189" as="targetPoint" />
          </mxGeometry>
        </mxCell>
        <mxCell id="slBnFQedNk6HUx9HUzPg-24" value="" style="endArrow=classic;html=1;fontSize=15;" parent="1" edge="1">
          <mxGeometry width="50" height="50" relative="1" as="geometry">
            <mxPoint x="327" y="268" as="sourcePoint" />
            <mxPoint x="534" y="268" as="targetPoint" />
          </mxGeometry>
        </mxCell>
        <mxCell id="slBnFQedNk6HUx9HUzPg-25" value="" style="endArrow=classic;html=1;fontSize=15;" parent="1" edge="1">
          <mxGeometry width="50" height="50" relative="1" as="geometry">
            <mxPoint x="534" y="322" as="sourcePoint" />
            <mxPoint x="320" y="322" as="targetPoint" />
          </mxGeometry>
        </mxCell>
        <mxCell id="slBnFQedNk6HUx9HUzPg-26" value="" style="endArrow=classic;html=1;fontSize=15;" parent="1" edge="1">
          <mxGeometry width="50" height="50" relative="1" as="geometry">
            <mxPoint x="321" y="395" as="sourcePoint" />
            <mxPoint x="743" y="395" as="targetPoint" />
          </mxGeometry>
        </mxCell>
        <mxCell id="slBnFQedNk6HUx9HUzPg-27" value="" style="endArrow=classic;html=1;fontSize=15;" parent="1" edge="1">
          <mxGeometry width="50" height="50" relative="1" as="geometry">
            <mxPoint x="745" y="458" as="sourcePoint" />
            <mxPoint x="532" y="458" as="targetPoint" />
          </mxGeometry>
        </mxCell>
        <mxCell id="slBnFQedNk6HUx9HUzPg-28" value="" style="endArrow=classic;html=1;fontSize=15;" parent="1" edge="1">
          <mxGeometry width="50" height="50" relative="1" as="geometry">
            <mxPoint x="532" y="495" as="sourcePoint" />
            <mxPoint x="744" y="495" as="targetPoint" />
          </mxGeometry>
        </mxCell>
        <mxCell id="slBnFQedNk6HUx9HUzPg-29" value="" style="endArrow=classic;html=1;fontSize=15;" parent="1" edge="1">
          <mxGeometry width="50" height="50" relative="1" as="geometry">
            <mxPoint x="742" y="604" as="sourcePoint" />
            <mxPoint x="977" y="604" as="targetPoint" />
          </mxGeometry>
        </mxCell>
        <mxCell id="slBnFQedNk6HUx9HUzPg-30" value="" style="endArrow=classic;html=1;fontSize=15;" parent="1" edge="1">
          <mxGeometry width="50" height="50" relative="1" as="geometry">
            <mxPoint x="745" y="637" as="sourcePoint" />
            <mxPoint x="322" y="637" as="targetPoint" />
          </mxGeometry>
        </mxCell>
        <mxCell id="slBnFQedNk6HUx9HUzPg-31" value="" style="endArrow=classic;html=1;fontSize=15;" parent="1" edge="1">
          <mxGeometry width="50" height="50" relative="1" as="geometry">
            <mxPoint x="319" y="728" as="sourcePoint" />
            <mxPoint x="741" y="728" as="targetPoint" />
          </mxGeometry>
        </mxCell>
        <mxCell id="slBnFQedNk6HUx9HUzPg-32" value="" style="endArrow=classic;html=1;fontSize=15;" parent="1" edge="1">
          <mxGeometry width="50" height="50" relative="1" as="geometry">
            <mxPoint x="740" y="759" as="sourcePoint" />
            <mxPoint x="972" y="759" as="targetPoint" />
          </mxGeometry>
        </mxCell>
        <mxCell id="slBnFQedNk6HUx9HUzPg-33" value="Get app settings" style="text;html=1;strokeColor=none;fillColor=none;align=center;verticalAlign=middle;whiteSpace=wrap;rounded=0;fontSize=15;" parent="1" vertex="1">
          <mxGeometry x="473" y="113" width="161" height="20" as="geometry" />
        </mxCell>
        <mxCell id="slBnFQedNk6HUx9HUzPg-34" value="Settings (zoom auth url, etc)" style="text;html=1;strokeColor=none;fillColor=none;align=center;verticalAlign=middle;whiteSpace=wrap;rounded=0;fontSize=15;" parent="1" vertex="1">
          <mxGeometry x="420" y="158" width="263" height="20" as="geometry" />
        </mxCell>
        <mxCell id="slBnFQedNk6HUx9HUzPg-35" value="redirect on Zoom Oauth page" style="text;html=1;strokeColor=none;fillColor=none;align=center;verticalAlign=middle;whiteSpace=wrap;rounded=0;fontSize=15;" parent="1" vertex="1">
          <mxGeometry x="295" y="237" width="263" height="20" as="geometry" />
        </mxCell>
        <mxCell id="slBnFQedNk6HUx9HUzPg-37" value="redirect back with auth code" style="text;html=1;strokeColor=none;fillColor=none;align=center;verticalAlign=middle;whiteSpace=wrap;rounded=0;fontSize=15;" parent="1" vertex="1">
          <mxGeometry x="298" y="293" width="263" height="20" as="geometry" />
        </mxCell>
        <mxCell id="slBnFQedNk6HUx9HUzPg-38" value="" style="edgeStyle=segmentEdgeStyle;endArrow=classic;html=1;fontSize=15;" parent="1" edge="1">
          <mxGeometry width="50" height="50" relative="1" as="geometry">
            <mxPoint x="530" y="270" as="sourcePoint" />
            <mxPoint x="536" y="324" as="targetPoint" />
            <Array as="points">
              <mxPoint x="596" y="270" />
              <mxPoint x="596" y="324" />
            </Array>
          </mxGeometry>
        </mxCell>
        <mxCell id="slBnFQedNk6HUx9HUzPg-39" value="User login on Zoom" style="text;html=1;align=center;verticalAlign=middle;resizable=0;points=[];autosize=1;fontSize=15;" parent="1" vertex="1">
          <mxGeometry x="575" y="246" width="141" height="22" as="geometry" />
        </mxCell>
        <mxCell id="slBnFQedNk6HUx9HUzPg-40" value="sign in with auth code" style="text;html=1;strokeColor=none;fillColor=none;align=center;verticalAlign=middle;whiteSpace=wrap;rounded=0;fontSize=15;" parent="1" vertex="1">
          <mxGeometry x="401.5" y="368" width="263" height="20" as="geometry" />
        </mxCell>
        <mxCell id="slBnFQedNk6HUx9HUzPg-41" value="request access tokens" style="text;html=1;align=center;verticalAlign=middle;resizable=0;points=[];autosize=1;fontSize=15;" parent="1" vertex="1">
          <mxGeometry x="556" y="430" width="160" height="22" as="geometry" />
        </mxCell>
        <mxCell id="slBnFQedNk6HUx9HUzPg-42" value="access tokens" style="text;html=1;align=center;verticalAlign=middle;resizable=0;points=[];autosize=1;fontSize=15;" parent="1" vertex="1">
          <mxGeometry x="575" y="471" width="105" height="22" as="geometry" />
        </mxCell>
        <mxCell id="slBnFQedNk6HUx9HUzPg-43" value="" style="endArrow=classic;html=1;fontSize=15;" parent="1" edge="1">
          <mxGeometry width="50" height="50" relative="1" as="geometry">
            <mxPoint x="742" y="540" as="sourcePoint" />
            <mxPoint x="534" y="540" as="targetPoint" />
          </mxGeometry>
        </mxCell>
        <mxCell id="slBnFQedNk6HUx9HUzPg-44" value="" style="endArrow=classic;html=1;fontSize=15;" parent="1" edge="1">
          <mxGeometry width="50" height="50" relative="1" as="geometry">
            <mxPoint x="529" y="577" as="sourcePoint" />
            <mxPoint x="741" y="577" as="targetPoint" />
          </mxGeometry>
        </mxCell>
        <mxCell id="slBnFQedNk6HUx9HUzPg-45" value="get user profile" style="text;html=1;align=center;verticalAlign=middle;resizable=0;points=[];autosize=1;fontSize=15;" parent="1" vertex="1">
          <mxGeometry x="579" y="512" width="109" height="22" as="geometry" />
        </mxCell>
        <mxCell id="slBnFQedNk6HUx9HUzPg-46" value="user profile" style="text;html=1;align=center;verticalAlign=middle;resizable=0;points=[];autosize=1;fontSize=15;" parent="1" vertex="1">
          <mxGeometry x="583" y="553" width="84" height="22" as="geometry" />
        </mxCell>
        <mxCell id="slBnFQedNk6HUx9HUzPg-49" value="save user data&lt;br&gt;(access tokens, profile data)" style="text;html=1;align=center;verticalAlign=middle;resizable=0;points=[];autosize=1;fontSize=15;" parent="1" vertex="1">
          <mxGeometry x="765" y="557" width="198" height="39" as="geometry" />
        </mxCell>
        <mxCell id="slBnFQedNk6HUx9HUzPg-50" value="Cookies(with encrypted user identity), Zoom profile data" style="text;html=1;align=center;verticalAlign=middle;resizable=0;points=[];autosize=1;fontSize=15;" parent="1" vertex="1">
          <mxGeometry x="333" y="602" width="381" height="22" as="geometry" />
        </mxCell>
        <mxCell id="slBnFQedNk6HUx9HUzPg-55" value="user fill out account info form&lt;br&gt;&amp;nbsp;based on prepopulated&amp;nbsp;&lt;br&gt;&amp;nbsp;Zoom info" style="text;html=1;align=center;verticalAlign=middle;resizable=0;points=[];autosize=1;fontSize=15;" parent="1" vertex="1">
          <mxGeometry x="124" y="658" width="202" height="57" as="geometry" />
        </mxCell>
        <mxCell id="slBnFQedNk6HUx9HUzPg-56" value="Account info" style="text;html=1;align=center;verticalAlign=middle;resizable=0;points=[];autosize=1;fontSize=15;" parent="1" vertex="1">
          <mxGeometry x="439" y="696" width="92" height="22" as="geometry" />
        </mxCell>
        <mxCell id="slBnFQedNk6HUx9HUzPg-57" value="update account info" style="text;html=1;align=center;verticalAlign=middle;resizable=0;points=[];autosize=1;fontSize=15;" parent="1" vertex="1">
          <mxGeometry x="779" y="729" width="141" height="22" as="geometry" />
        </mxCell>
        <mxCell id="slBnFQedNk6HUx9HUzPg-58" value="&lt;font style=&quot;font-size: 15px&quot;&gt;User&lt;/font&gt;" style="rounded=1;whiteSpace=wrap;html=1;fontSize=15;" parent="1" vertex="1">
          <mxGeometry x="66" y="38" width="120" height="60" as="geometry" />
        </mxCell>
        <mxCell id="slBnFQedNk6HUx9HUzPg-59" value="" style="endArrow=none;dashed=1;html=1;fontSize=15;entryX=0.5;entryY=1;entryDx=0;entryDy=0;textOpacity=50;opacity=50;" parent="1" target="slBnFQedNk6HUx9HUzPg-58" edge="1">
          <mxGeometry width="50" height="50" relative="1" as="geometry">
            <mxPoint x="125" y="787" as="sourcePoint" />
            <mxPoint x="618" y="395" as="targetPoint" />
          </mxGeometry>
        </mxCell>
        <mxCell id="slBnFQedNk6HUx9HUzPg-60" value="" style="endArrow=classic;html=1;fontSize=15;" parent="1" edge="1">
          <mxGeometry width="50" height="50" relative="1" as="geometry">
            <mxPoint x="126" y="124" as="sourcePoint" />
            <mxPoint x="325" y="124" as="targetPoint" />
          </mxGeometry>
        </mxCell>
        <mxCell id="slBnFQedNk6HUx9HUzPg-61" value="Open app" style="text;html=1;align=center;verticalAlign=middle;resizable=0;points=[];autosize=1;fontSize=15;" parent="1" vertex="1">
          <mxGeometry x="190" y="104" width="76" height="22" as="geometry" />
        </mxCell>
        <mxCell id="slBnFQedNk6HUx9HUzPg-64" value="" style="endArrow=classic;html=1;fontSize=15;" parent="1" edge="1">
          <mxGeometry width="50" height="50" relative="1" as="geometry">
            <mxPoint x="124" y="222" as="sourcePoint" />
            <mxPoint x="324" y="222" as="targetPoint" />
          </mxGeometry>
        </mxCell>
        <mxCell id="slBnFQedNk6HUx9HUzPg-65" value="Sign in" style="text;html=1;align=center;verticalAlign=middle;resizable=0;points=[];autosize=1;fontSize=15;" parent="1" vertex="1">
          <mxGeometry x="184" y="200" width="56" height="22" as="geometry" />
        </mxCell>
        <mxCell id="slBnFQedNk6HUx9HUzPg-66" value="" style="endArrow=classic;html=1;fontSize=15;" parent="1" edge="1">
          <mxGeometry width="50" height="50" relative="1" as="geometry">
            <mxPoint x="323" y="654" as="sourcePoint" />
            <mxPoint x="125" y="654" as="targetPoint" />
          </mxGeometry>
        </mxCell>
        <mxCell id="slBnFQedNk6HUx9HUzPg-67" value="request to setup account" style="text;html=1;align=center;verticalAlign=middle;resizable=0;points=[];autosize=1;fontSize=15;" parent="1" vertex="1">
          <mxGeometry x="138" y="630" width="174" height="22" as="geometry" />
        </mxCell>
        <mxCell id="slBnFQedNk6HUx9HUzPg-68" value="" style="endArrow=classic;html=1;fontSize=15;entryX=0.989;entryY=1.014;entryDx=0;entryDy=0;entryPerimeter=0;" parent="1" target="slBnFQedNk6HUx9HUzPg-55" edge="1">
          <mxGeometry width="50" height="50" relative="1" as="geometry">
            <mxPoint x="126" y="716" as="sourcePoint" />
            <mxPoint x="321" y="709" as="targetPoint" />
          </mxGeometry>
        </mxCell>
      </root>
    </mxGraphModel>
  </diagram>
</mxfile>
